<svg width="30" height="30" viewBox="0 0 30 30" fill="none" xmlns="http://www.w3.org/2000/svg">
<path d="M8.33333 0C3.73833 0 0 3.73833 0 8.33333V21.6667C0 26.2617 3.73833 30 8.33333 30H21.6667C26.2617 30 30 26.2617 30 21.6667V8.33333C30 3.73833 26.2617 0 21.6667 0H8.33333ZM8.33333 3.33333H21.6667C24.4233 3.33333 26.6667 5.57667 26.6667 8.33333V21.6667C26.6667 24.4233 24.4233 26.6667 21.6667 26.6667H8.33333C5.57667 26.6667 3.33333 24.4233 3.33333 21.6667V8.33333C3.33333 5.57667 5.57667 3.33333 8.33333 3.33333ZM23.3333 5C22.4129 5 21.6667 5.7462 21.6667 6.66667C21.6667 7.58713 22.4129 8.33333 23.3333 8.33333C24.2538 8.33333 25 7.58713 25 6.66667C25 5.7462 24.2538 5 23.3333 5ZM15 6.66667C10.405 6.66667 6.66667 10.405 6.66667 15C6.66667 19.595 10.405 23.3333 15 23.3333C19.595 23.3333 23.3333 19.595 23.3333 15C23.3333 10.405 19.595 6.66667 15 6.66667ZM15 10C17.7567 10 20 12.2433 20 15C20 17.7567 17.7567 20 15 20C12.2433 20 10 17.7567 10 15C10 12.2433 12.2433 10 15 10Z" fill="white"/>
</svg>
