<svg width="24" height="24" viewBox="0 0 24 24" fill="none" xmlns="http://www.w3.org/2000/svg">
<path d="M12 0C5.373 0 0 5.373 0 12C0 14.2512 0.63234 16.3501 1.71094 18.1504L0.10742 24L6.08203 22.4316C7.82935 23.4251 9.84649 24 12 24C18.627 24 24 18.627 24 12C24 5.373 18.627 0 12 0ZM7.89258 6.40234C8.08758 6.40234 8.28794 6.40115 8.46094 6.41015C8.67494 6.41515 8.90786 6.43082 9.13086 6.92382C9.39586 7.50982 9.97288 8.9799 10.0469 9.1289C10.1209 9.2779 10.1733 9.45343 10.0703 9.64843C9.97232 9.84843 9.92135 9.96948 9.77735 10.1465C9.62835 10.3185 9.46508 10.5321 9.33008 10.6621C9.18108 10.8111 9.02722 10.9745 9.19922 11.2715C9.37122 11.5685 9.96856 12.5421 10.8516 13.3281C11.9866 14.3421 12.9442 14.6537 13.2422 14.8027C13.5402 14.9517 13.7128 14.9285 13.8848 14.7285C14.0618 14.5335 14.6281 13.8644 14.8281 13.5664C15.0231 13.2684 15.2222 13.32 15.4922 13.418C15.7662 13.516 17.2274 14.2358 17.5254 14.3848C17.8234 14.5338 18.0187 14.6075 18.0937 14.7285C18.1707 14.8535 18.1708 15.4486 17.9238 16.1426C17.6768 16.8356 16.4639 17.5057 15.9199 17.5527C15.3709 17.6037 14.8586 17.7995 12.3516 16.8125C9.32756 15.6215 7.42048 12.5242 7.27148 12.3242C7.12248 12.1292 6.06054 10.7139 6.06054 9.25392C6.06054 7.78892 6.82865 7.07145 7.09765 6.77345C7.37165 6.47545 7.69258 6.40234 7.89258 6.40234Z" fill="white"/>
</svg>
